<mxfile host="app.diagrams.net" modified="2023-02-27T18:20:39.233Z" agent="5.0 (Windows)" etag="edk1l2w1YYVOjzoHto6C" version="20.8.23" type="github">
  <diagram name="Page-1" id="RW3SJ1U-fseUrBeuwK3T">
    <mxGraphModel dx="944" dy="714" grid="1" gridSize="10" guides="1" tooltips="1" connect="1" arrows="1" fold="1" page="1" pageScale="1" pageWidth="850" pageHeight="1100" math="0" shadow="0">
      <root>
        <mxCell id="0" />
        <mxCell id="1" parent="0" />
        <mxCell id="Z6Lb-bES0Jurdj1cWWq7-1" value="Start" style="ellipse;whiteSpace=wrap;html=1;" vertex="1" parent="1">
          <mxGeometry x="50" y="50" width="120" height="80" as="geometry" />
        </mxCell>
        <mxCell id="Z6Lb-bES0Jurdj1cWWq7-2" value="" style="endArrow=classic;html=1;rounded=0;exitX=1;exitY=0.5;exitDx=0;exitDy=0;entryX=0;entryY=0.5;entryDx=0;entryDy=0;" edge="1" parent="1" source="Z6Lb-bES0Jurdj1cWWq7-1" target="Z6Lb-bES0Jurdj1cWWq7-3">
          <mxGeometry width="50" height="50" relative="1" as="geometry">
            <mxPoint x="400" y="390" as="sourcePoint" />
            <mxPoint x="190" y="86.36363636363637" as="targetPoint" />
          </mxGeometry>
        </mxCell>
        <mxCell id="Z6Lb-bES0Jurdj1cWWq7-3" value="User inputs a natural number" style="shape=parallelogram;perimeter=parallelogramPerimeter;whiteSpace=wrap;html=1;fixedSize=1;" vertex="1" parent="1">
          <mxGeometry x="380" y="70" width="120" height="60" as="geometry" />
        </mxCell>
        <mxCell id="Z6Lb-bES0Jurdj1cWWq7-9" value="" style="endArrow=classic;html=1;rounded=0;exitX=0.5;exitY=1;exitDx=0;exitDy=0;" edge="1" parent="1" source="Z6Lb-bES0Jurdj1cWWq7-3" target="Z6Lb-bES0Jurdj1cWWq7-10">
          <mxGeometry width="50" height="50" relative="1" as="geometry">
            <mxPoint x="400" y="390" as="sourcePoint" />
            <mxPoint x="440" y="270" as="targetPoint" />
          </mxGeometry>
        </mxCell>
        <mxCell id="Z6Lb-bES0Jurdj1cWWq7-10" value="is this number divisible by any other number than 1 and itself?" style="rhombus;whiteSpace=wrap;html=1;" vertex="1" parent="1">
          <mxGeometry x="400" y="230" width="80" height="80" as="geometry" />
        </mxCell>
        <mxCell id="Z6Lb-bES0Jurdj1cWWq7-11" value="" style="endArrow=classic;html=1;rounded=0;exitX=0;exitY=0.5;exitDx=0;exitDy=0;startArrow=none;" edge="1" parent="1" source="Z6Lb-bES0Jurdj1cWWq7-13">
          <mxGeometry width="50" height="50" relative="1" as="geometry">
            <mxPoint x="400" y="390" as="sourcePoint" />
            <mxPoint x="243.47826086956525" y="370" as="targetPoint" />
          </mxGeometry>
        </mxCell>
        <mxCell id="Z6Lb-bES0Jurdj1cWWq7-14" value="" style="endArrow=none;html=1;rounded=0;exitX=0;exitY=0.5;exitDx=0;exitDy=0;" edge="1" parent="1" source="Z6Lb-bES0Jurdj1cWWq7-10" target="Z6Lb-bES0Jurdj1cWWq7-13">
          <mxGeometry width="50" height="50" relative="1" as="geometry">
            <mxPoint x="400" y="270" as="sourcePoint" />
            <mxPoint x="243.47826086956525" y="370" as="targetPoint" />
          </mxGeometry>
        </mxCell>
        <mxCell id="Z6Lb-bES0Jurdj1cWWq7-13" value="yes" style="text;html=1;strokeColor=none;fillColor=none;align=center;verticalAlign=middle;whiteSpace=wrap;rounded=0;" vertex="1" parent="1">
          <mxGeometry x="300" y="300" width="60" height="30" as="geometry" />
        </mxCell>
        <mxCell id="Z6Lb-bES0Jurdj1cWWq7-15" value="display true" style="shape=parallelogram;perimeter=parallelogramPerimeter;whiteSpace=wrap;html=1;fixedSize=1;" vertex="1" parent="1">
          <mxGeometry x="170" y="370" width="120" height="60" as="geometry" />
        </mxCell>
        <mxCell id="Z6Lb-bES0Jurdj1cWWq7-16" value="" style="endArrow=classic;html=1;rounded=0;exitX=0.563;exitY=0.925;exitDx=0;exitDy=0;exitPerimeter=0;startArrow=none;" edge="1" parent="1" source="Z6Lb-bES0Jurdj1cWWq7-17">
          <mxGeometry width="50" height="50" relative="1" as="geometry">
            <mxPoint x="400" y="390" as="sourcePoint" />
            <mxPoint x="580" y="430" as="targetPoint" />
          </mxGeometry>
        </mxCell>
        <mxCell id="Z6Lb-bES0Jurdj1cWWq7-18" value="" style="endArrow=none;html=1;rounded=0;exitX=0.563;exitY=0.925;exitDx=0;exitDy=0;exitPerimeter=0;" edge="1" parent="1" source="Z6Lb-bES0Jurdj1cWWq7-10" target="Z6Lb-bES0Jurdj1cWWq7-17">
          <mxGeometry width="50" height="50" relative="1" as="geometry">
            <mxPoint x="445" y="304" as="sourcePoint" />
            <mxPoint x="580" y="430" as="targetPoint" />
          </mxGeometry>
        </mxCell>
        <mxCell id="Z6Lb-bES0Jurdj1cWWq7-17" value="no" style="text;html=1;strokeColor=none;fillColor=none;align=center;verticalAlign=middle;whiteSpace=wrap;rounded=0;" vertex="1" parent="1">
          <mxGeometry x="460" y="330" width="60" height="30" as="geometry" />
        </mxCell>
        <mxCell id="Z6Lb-bES0Jurdj1cWWq7-19" value="display true" style="shape=parallelogram;perimeter=parallelogramPerimeter;whiteSpace=wrap;html=1;fixedSize=1;" vertex="1" parent="1">
          <mxGeometry x="540" y="430" width="120" height="60" as="geometry" />
        </mxCell>
        <mxCell id="Z6Lb-bES0Jurdj1cWWq7-20" value="end" style="ellipse;whiteSpace=wrap;html=1;" vertex="1" parent="1">
          <mxGeometry x="320" y="540" width="120" height="80" as="geometry" />
        </mxCell>
        <mxCell id="Z6Lb-bES0Jurdj1cWWq7-21" value="" style="endArrow=classic;html=1;rounded=0;exitX=0.75;exitY=1;exitDx=0;exitDy=0;entryX=0.183;entryY=0.025;entryDx=0;entryDy=0;entryPerimeter=0;" edge="1" parent="1" source="Z6Lb-bES0Jurdj1cWWq7-15" target="Z6Lb-bES0Jurdj1cWWq7-20">
          <mxGeometry width="50" height="50" relative="1" as="geometry">
            <mxPoint x="400" y="390" as="sourcePoint" />
            <mxPoint x="450" y="340" as="targetPoint" />
          </mxGeometry>
        </mxCell>
        <mxCell id="Z6Lb-bES0Jurdj1cWWq7-22" value="" style="endArrow=classic;html=1;rounded=0;exitX=0;exitY=1;exitDx=0;exitDy=0;entryX=1;entryY=0.25;entryDx=0;entryDy=0;entryPerimeter=0;" edge="1" parent="1" source="Z6Lb-bES0Jurdj1cWWq7-19" target="Z6Lb-bES0Jurdj1cWWq7-20">
          <mxGeometry width="50" height="50" relative="1" as="geometry">
            <mxPoint x="400" y="390" as="sourcePoint" />
            <mxPoint x="450" y="340" as="targetPoint" />
          </mxGeometry>
        </mxCell>
      </root>
    </mxGraphModel>
  </diagram>
</mxfile>
